<?xml version="1.0" encoding="iso-8859-1"?>
<!-- Generator: Adobe Illustrator 16.0.0, SVG Export Plug-In . SVG Version: 6.00 Build 0)  -->
<!DOCTYPE svg PUBLIC "-//W3C//DTD SVG 1.1//EN" "http://www.w3.org/Graphics/SVG/1.1/DTD/svg11.dtd">
<svg version="1.1" id="Capa_1" xmlns="http://www.w3.org/2000/svg" xmlns:xlink="http://www.w3.org/1999/xlink" x="0px" y="0px"
	 width="32px" height="32px" viewBox="0 0 32 32" style="enable-background:new 0 0 32 32;" xml:space="preserve">
<g>
	<g>
		<path d="M13.961,29.827v-2.62l-0.188-0.169c-0.226,0.146-0.491,0.235-0.777,0.252c-0.03,0.001-0.059,0.002-0.089,0.002
			c-0.303,0-0.586-0.086-0.829-0.231v2.643c-0.954,0.329-1.64,1.232-1.64,2.297c2.474,0,1.231,0,4.866,0
			C15.304,31.049,14.757,30.227,13.961,29.827z"/>
		<circle cx="13.921" cy="6.29" r="0.577"/>
		<path d="M14.147,25.617c-0.038-0.686-0.624-1.21-1.309-1.172c-0.249,0.014-0.476,0.1-0.665,0.238l1.809,1.621
			C14.099,26.102,14.16,25.866,14.147,25.617z"/>
		<path d="M11.667,25.752c0.037,0.686,0.623,1.21,1.308,1.173c0.207-0.011,0.398-0.073,0.565-0.172l-1.764-1.58
			C11.696,25.35,11.655,25.546,11.667,25.752z"/>
		<path d="M19.922,29.701v-2.643c-0.242,0.146-0.527,0.231-0.83,0.231c-0.028,0-0.06-0.001-0.088-0.002
			c-0.287-0.015-0.552-0.106-0.777-0.251l-0.188,0.169v2.62c-0.796,0.4-1.344,1.222-1.344,2.173c3.635,0,2.393,0,4.865,0
			C21.559,30.934,20.875,30.03,19.922,29.701z"/>
		<circle cx="18.077" cy="6.288" r="0.577"/>
		<path d="M17.852,25.615c-0.014,0.25,0.047,0.484,0.164,0.687l1.81-1.62c-0.188-0.138-0.416-0.225-0.665-0.238
			C18.475,24.404,17.889,24.93,17.852,25.615z"/>
		<path d="M20.332,25.751c0.012-0.207-0.029-0.403-0.109-0.58l-1.764,1.58c0.166,0.099,0.358,0.161,0.564,0.172
			C19.708,26.961,20.295,26.436,20.332,25.751z"/>
		<path d="M8.818,17.059c-0.037-0.68-0.618-1.2-1.297-1.163c-0.247,0.014-0.472,0.1-0.658,0.236l1.793,1.607
			C8.771,17.539,8.832,17.305,8.818,17.059z"/>
		<path d="M7.656,18.355c0.204-0.012,0.394-0.073,0.559-0.17l-1.748-1.567c-0.08,0.174-0.12,0.37-0.109,0.575
			C6.396,17.872,6.977,18.393,7.656,18.355z"/>
		<path d="M23.18,17.059c-0.014,0.246,0.047,0.48,0.162,0.681l1.795-1.606c-0.188-0.136-0.414-0.223-0.66-0.236
			C23.799,15.859,23.217,16.379,23.18,17.059z"/>
		<path d="M24.342,18.355c0.68,0.037,1.26-0.483,1.297-1.162c0.012-0.205-0.028-0.401-0.107-0.575l-1.749,1.567
			C23.948,18.282,24.137,18.344,24.342,18.355z"/>
		<path d="M24.498,15.521c0.231,0.013,0.451,0.075,0.651,0.178c-0.545-1.917-2.103-3.517-3.375-3.622l-3.325-0.006V10.8h1.618
			c0,0,1.677-7.21,0-7.21c-0.36,0-0.97,0-1.704,0c-0.234-0.319-0.934-0.569-1.816-0.649c0.177-0.5,0.653-1.583,1.556-1.957
			c0.088,0.341,0.395,0.595,0.763,0.595c0.437,0,0.79-0.354,0.79-0.79C19.656,0.354,19.303,0,18.867,0
			c-0.322,0-0.598,0.193-0.72,0.469c-1.331,0.379-1.924,1.928-2.088,2.447c-0.021,0-0.041-0.001-0.062-0.001v0.001
			c-0.019,0-0.038,0.001-0.058,0.001c-0.163-0.518-0.757-2.067-2.088-2.447c-0.123-0.275-0.398-0.468-0.72-0.468
			c-0.437,0-0.79,0.354-0.79,0.79s0.353,0.79,0.79,0.79c0.368,0,0.675-0.253,0.762-0.594c0.903,0.374,1.379,1.457,1.556,1.956
			c-0.884,0.08-1.583,0.33-1.817,0.648c-0.733,0-1.342,0-1.703,0c-1.678,0,0,7.21,0,7.21h1.619v1.271l-3.326,0.004
			c-1.271,0.105-2.829,1.706-3.374,3.622c0.2-0.103,0.42-0.166,0.651-0.178c0.477-0.026,0.913,0.16,1.224,0.472
			c0.389-1.11,1.258-1.939,1.622-2.035l0.514,7.86h1.216v2.49c0.223-0.135,0.475-0.214,0.742-0.228
			c0.436-0.024,0.838,0.128,1.142,0.394v-2.656h2.04v-0.002h2.037v2.656c0.304-0.265,0.706-0.418,1.142-0.394
			c0.267,0.014,0.52,0.093,0.742,0.228v-2.49h1.215l0.515-7.857c0.364,0.096,1.233,0.925,1.622,2.035
			C23.586,15.681,24.021,15.495,24.498,15.521z M15.997,8.593h1.502v0.941H16v0.002h-1.502V8.595h1.499V8.593z M19.352,6.288
			c0,0.704-0.57,1.275-1.274,1.275c-0.703,0-1.274-0.571-1.274-1.275s0.571-1.275,1.274-1.275
			C18.781,5.013,19.352,5.584,19.352,6.288z M12.646,6.29c0-0.704,0.571-1.275,1.274-1.275c0.705,0,1.275,0.572,1.275,1.275
			c0,0.704-0.571,1.275-1.275,1.275C13.217,7.565,12.646,6.994,12.646,6.29z M20.16,20.205h-7.818v-0.402h7.818V20.205z
			 M20.16,19.086h-7.818v-0.402h7.818V19.086z M20.16,17.982h-7.818v-0.401h7.818V17.982z M20.16,16.864h-7.818v-0.402h7.818V16.864
			z M20.16,15.746h-7.818v-0.402h7.818V15.746z M20.16,14.687h-7.818v-0.402h7.818V14.687z"/>
		<path d="M9.502,22.318c0-0.471-0.381-0.854-0.853-0.854H8.531v-2.918l-0.077-0.068c-0.226,0.146-0.49,0.236-0.777,0.252
			c-0.03,0.002-0.059,0.002-0.089,0.002c-0.351,0-0.675-0.113-0.941-0.307v3.038H6.511c-0.472-0.002-0.854,0.38-0.855,0.853
			c0,0.029,0.006,0.059,0.009,0.088c-0.003,0.029-0.009,0.058-0.009,0.088v1.04c0,0.379,0.306,0.687,0.686,0.687
			c0.379,0.001,0.687-0.307,0.687-0.686V23.17l1.119,0.001v0.363c0,0.379,0.307,0.687,0.686,0.687c0.38,0,0.688-0.307,0.688-0.687
			l0.001-1.04c0-0.057-0.008-0.109-0.021-0.162C9.501,22.329,9.502,22.324,9.502,22.318z"/>
		<path d="M26.342,22.492c0.002-0.03-0.004-0.059-0.009-0.088c0.003-0.029,0.009-0.059,0.009-0.088c0-0.473-0.381-0.854-0.854-0.854
			h-0.137v-3.038c-0.264,0.193-0.59,0.308-0.939,0.308c-0.029,0-0.061,0-0.089-0.002c-0.287-0.017-0.551-0.107-0.776-0.252
			l-0.076,0.067v2.918H23.35c-0.471,0-0.853,0.384-0.853,0.854c0,0.005,0,0.01,0.001,0.015c-0.012,0.053-0.021,0.106-0.021,0.162
			l0.002,1.04c0,0.379,0.308,0.688,0.687,0.688c0.38,0,0.687-0.309,0.687-0.688v-0.363l1.119-0.001v0.363
			c0,0.379,0.308,0.687,0.687,0.686c0.379,0,0.687-0.308,0.687-0.687L26.342,22.492z"/>
	</g>
</g>
<g>
</g>
<g>
</g>
<g>
</g>
<g>
</g>
<g>
</g>
<g>
</g>
<g>
</g>
<g>
</g>
<g>
</g>
<g>
</g>
<g>
</g>
<g>
</g>
<g>
</g>
<g>
</g>
<g>
</g>
</svg>
